<?xml version="1.0" standalone="no"?>
<!DOCTYPE svg PUBLIC "-//W3C//DTD SVG 20010904//EN"
 "http://www.w3.org/TR/2001/REC-SVG-20010904/DTD/svg10.dtd">
<svg version="1.0" xmlns="http://www.w3.org/2000/svg"
 width="726.000000pt" height="717.000000pt" viewBox="0 0 726.000000 717.000000"
 preserveAspectRatio="xMidYMid meet">

<g transform="translate(0.000000,717.000000) scale(0.100000,-0.100000)"
fill="#000000" stroke="none">
<path d="M3345 6924 c-254 -24 -563 -90 -803 -170 -200 -68 -511 -216 -700
-334 -458 -287 -847 -687 -1120 -1150 -226 -384 -363 -785 -434 -1275 -9 -60
-13 -198 -13 -410 0 -334 6 -398 56 -650 113 -570 385 -1112 778 -1555 569
-642 1365 -1041 2230 -1120 166 -16 602 -8 751 14 280 39 550 110 810 211 130
50 411 190 444 220 14 13 26 22 26 19 0 -18 218 126 380 252 144 111 419 384
534 529 421 531 662 1126 721 1785 98 1081 -332 2130 -1165 2841 -375 321
-853 569 -1335 694 -290 76 -461 97 -815 100 -168 2 -323 1 -345 -1z m496
-734 c343 -25 658 -111 974 -265 420 -205 798 -539 1046 -925 149 -231 263
-487 334 -751 14 -52 37 -164 52 -249 24 -141 27 -178 27 -415 0 -224 -3 -279
-23 -395 -74 -438 -237 -823 -495 -1168 -98 -131 -357 -393 -486 -492 -385
-294 -821 -475 -1298 -536 -170 -22 -485 -22 -657 0 -308 39 -576 120 -851
257 -515 254 -928 666 -1185 1179 -122 245 -194 470 -246 770 -26 150 -26 618
0 770 79 472 247 858 536 1230 36 47 129 148 206 225 548 548 1288 822 2066
765z"/>
<path d="M2977 5774 c-4 -4 -7 -153 -7 -331 l0 -323 -415 0 -415 0 0 -215 0
-215 163 0 c173 0 264 -11 305 -38 53 -35 52 -6 52 -1049 0 -954 0 -967 -20
-1009 -36 -74 -49 -78 -265 -84 l-190 -5 -9 -202 c-4 -111 -6 -209 -2 -218 5
-13 55 -15 401 -15 l395 0 2 -247 c3 -260 4 -324 6 -385 l2 -38 205 0 205 0 0
335 0 335 140 0 140 0 2 -332 3 -333 205 0 205 0 3 333 2 332 64 0 c35 0 123
5 197 11 540 43 842 266 941 694 29 126 31 371 4 465 -63 216 -225 389 -446
476 -39 15 -70 30 -70 34 0 4 18 20 41 36 127 87 240 257 275 413 22 99 15
269 -15 362 -84 264 -378 453 -821 528 -69 12 -135 21 -147 21 l-23 0 0 335 0
335 -210 0 -210 0 0 -330 0 -330 -135 0 -135 0 -2 328 -3 327 -206 3 c-113 1
-208 -1 -212 -4z m909 -1129 c327 -49 461 -199 409 -456 -33 -165 -127 -268
-289 -318 -62 -19 -92 -21 -337 -21 -148 0 -269 3 -270 8 -2 14 -2 71 0 435
l1 367 191 0 c120 0 230 -6 295 -15z m179 -1230 c347 -50 495 -218 430 -493
-43 -180 -157 -285 -375 -343 -80 -22 -104 -23 -405 -24 l-320 0 -2 425 c-2
234 -1 431 2 438 7 18 537 16 670 -3z"/>
</g>
</svg>
